<svg width="1024" height="1024" viewBox="0 0 1024 1024" fill="none" xmlns="http://www.w3.org/2000/svg">
  <defs>
    <linearGradient id="bg" x1="140" y1="96" x2="890" y2="930" gradientUnits="userSpaceOnUse">
      <stop stop-color="#0F172A"/>
      <stop offset="0.55" stop-color="#0B5FFF"/>
      <stop offset="1" stop-color="#22C55E"/>
    </linearGradient>
    <linearGradient id="card" x1="272" y1="222" x2="768" y2="778" gradientUnits="userSpaceOnUse">
      <stop stop-color="#F8FAFC" stop-opacity="0.98"/>
      <stop offset="1" stop-color="#E2E8F0" stop-opacity="0.94"/>
    </linearGradient>
  </defs>

  <rect width="1024" height="1024" rx="240" fill="url(#bg)"/>
  <circle cx="824" cy="218" r="92" fill="#93C5FD" fill-opacity="0.18"/>
  <circle cx="220" cy="828" r="120" fill="#86EFAC" fill-opacity="0.16"/>

  <rect x="238" y="214" width="548" height="432" rx="118" fill="url(#card)"/>
  <path d="M404 618L362 736L512 660H674C739.17 660 792 607.17 792 542V332C792 266.83 739.17 214 674 214H356C290.83 214 238 266.83 238 332V500C238 565.17 290.83 618 356 618H404Z" fill="url(#card)"/>

  <rect x="368" y="330" width="288" height="188" rx="76" fill="#0F172A"/>
  <circle cx="450" cy="424" r="28" fill="#F8FAFC"/>
  <circle cx="574" cy="424" r="28" fill="#F8FAFC"/>
  <rect x="440" y="490" width="144" height="22" rx="11" fill="#22C55E"/>
  <path d="M396 322L448 254L484 334" stroke="#0F172A" stroke-width="28" stroke-linecap="round" stroke-linejoin="round"/>
  <path d="M540 334L576 254L628 322" stroke="#0F172A" stroke-width="28" stroke-linecap="round" stroke-linejoin="round"/>

  <rect x="300" y="736" width="424" height="92" rx="46" fill="#0F172A" fill-opacity="0.24"/>
  <path d="M374 799V761H428C462 761 484 778 484 799C484 820 462 837 428 837H374V799ZM412 780V818H428C443 818 454 811 454 799C454 787 443 780 428 780H412Z" fill="#F8FAFC"/>
  <path d="M520 837C479 837 452 812 452 774C452 736 480 711 520 711C560 711 588 736 588 774C588 812 561 837 520 837ZM520 808C541 808 556 794 556 774C556 754 541 740 520 740C499 740 484 754 484 774C484 794 499 808 520 808Z" fill="#F8FAFC"/>
  <path d="M596 837V711H626L682 781V711H714V837H686L628 764V837H596Z" fill="#F8FAFC"/>
</svg>
